<svg width="610" height="490" viewBox="0 0 610 490" fill="none" xmlns="http://www.w3.org/2000/svg">
<path d="M445.544 25.7683C439.591 9.8755 433.381 -6.70632 391.334 4.50933C368.757 10.5317 349.831 31.8094 334.36 63.4075C322.72 88.5373 312.885 121.033 305.039 159.995C289.008 239.61 282.254 342.596 285.411 442.726L278.415 442.947L278.323 439.927C276.187 367.623 279.185 293.969 287.094 228.668C253.445 193.695 215.092 166.13 187.144 156.975C120.914 142.371 103.417 180.953 103.851 215.37C103.93 221.663 106.13 226.897 108.345 232.17C110.636 237.623 112.944 243.116 112.944 249.865C112.944 254.341 102.935 263.586 89.924 275.605C64.3444 299.232 27.1624 333.577 31.6251 363.466C35.7493 391.087 61.903 412.06 85.9762 423.336C88.3331 424.44 90.9 426.491 93.9886 428.958C96.1852 430.714 98.6457 432.68 101.482 434.666L101.7 434.817C103.928 436.352 107.605 438.517 112.732 441.312L114.313 442.17C186.838 481.294 271.009 454.936 297.238 445.207L298.77 444.633L484.767 442.562L484.743 442.417C484.692 442.114 484.609 441.664 484.502 441.082C482.753 431.607 474.542 387.099 492.027 369.163C546.632 313.15 606.509 152.851 525.099 85.6792C507.108 70.8349 489.256 61.8108 475.546 54.8803C467.219 50.671 460.42 47.234 456.045 43.7343C450.658 39.4247 448.125 32.6613 445.544 25.7683Z" fill="#6930C3"/>
<path fill-rule="evenodd" clip-rule="evenodd" d="M116.151 205.183C112.052 204.471 119.296 212.599 119.296 212.599C119.296 212.599 120.25 205.896 116.151 205.183Z" fill="white"/>
<path fill-rule="evenodd" clip-rule="evenodd" d="M177.46 443.187C177.46 443.187 133.432 424.766 133.432 399.119C133.432 391.595 138.138 392.317 147.551 401.286C148.575 402.262 150.042 403.759 151.951 405.779C153.121 407.016 126.697 374.93 140.011 368.928C152.99 363.077 156.009 393.451 156.687 393.032C157.442 392.566 157.221 383.376 160.225 379.313C161.843 377.124 166.602 376.656 170.203 379.313C189.119 393.27 177.46 443.187 177.46 443.187Z" fill="white"/>
<path fill-rule="evenodd" clip-rule="evenodd" d="M158.535 255.042C158.535 255.042 140.221 254.102 137.725 248.279C135.228 242.455 148.809 245.765 148.809 245.765L158.535 255.042Z" fill="white"/>
<path fill-rule="evenodd" clip-rule="evenodd" d="M127.562 227.435C123.462 225.141 125.794 219.67 127.562 219.443C132.797 218.769 136.927 230.369 137.504 231.53C138.503 233.542 129.642 228.599 127.562 227.435Z" fill="white"/>
<path fill-rule="evenodd" clip-rule="evenodd" d="M169.724 262.598C169.724 262.598 159.696 237.033 168.979 239.048C178.262 241.062 175.591 270.782 175.591 270.782L169.724 262.598Z" fill="white"/>
<path fill-rule="evenodd" clip-rule="evenodd" d="M162.992 243.977C163.123 248.123 164.894 254.484 168.296 263.158C168.343 263.276 168.404 263.388 168.478 263.492L174.346 271.675C175.174 272.83 176.991 272.335 177.119 270.919L177.225 269.695C178.874 249.879 176.493 239.109 169.304 237.549C165.122 236.642 162.839 239.143 162.992 243.977ZM168.809 240.583C173.275 241.728 175.352 250.015 174.444 265.569L174.387 266.472L171.08 261.859L170.502 260.358C167.645 252.85 166.166 247.331 166.056 243.88L166.048 243.398C166.041 240.783 166.759 240.135 168.654 240.546L168.809 240.583Z" fill="#00160A"/>
<path fill-rule="evenodd" clip-rule="evenodd" d="M134.313 367.378C127.853 370.29 128.301 377.636 133.231 387.642L133.61 388.399C134.512 390.172 135.541 392.004 136.68 393.883L137.072 394.524L137.023 394.492C135.179 393.265 133.588 392.547 132.22 392.337C128.585 391.779 126.732 394.457 126.732 399.119C126.732 417.068 141.889 432.239 171.804 444.755C172.774 445.161 173.876 444.597 174.115 443.573C182.027 409.699 179.537 387.776 166.212 377.945C162.124 374.928 156.213 375.116 153.858 378.302L153.653 378.59C152.652 380.062 151.954 381.999 151.436 384.408L151.413 384.515L151.346 384.25C150.978 382.808 150.589 381.448 150.148 380.085C148.688 375.568 146.942 372.02 144.751 369.646C141.868 366.521 138.284 365.588 134.313 367.378ZM148.945 388.918L149.692 392.437L149.778 392.803C149.833 393.024 149.883 393.202 149.934 393.353C150.002 393.556 150.073 393.724 150.186 393.903C150.327 394.124 150.501 394.319 150.778 394.486C151.317 394.812 152.01 394.831 152.581 394.478C153.316 394.024 153.496 393.634 153.697 392.348L153.791 391.706C153.857 391.231 154.1 389.213 154.142 388.893C154.305 387.618 154.468 386.565 154.669 385.563C155.139 383.21 155.773 381.431 156.592 380.323C157.712 378.807 161.492 378.687 164.193 380.68L164.547 380.947C175.785 389.603 178.218 409.209 171.465 439.891L171.256 440.828L170.564 440.528C143.488 428.719 130.132 414.878 130.132 399.119C130.132 396.256 130.632 395.533 131.704 395.698C133.601 395.989 136.915 398.264 141.378 402.517L141.949 403.07C142.629 403.739 143.465 404.59 144.454 405.622L145.772 407.005C145.795 407.027 145.829 407.057 145.896 407.118L145.918 407.17C145.97 407.255 146.137 407.286 147.252 407.493L147.64 407.356C148.1 407.182 148.173 407.067 148.564 406.453L148.653 406.08C148.707 405.835 148.699 405.777 148.67 405.565L148.596 405.264C148.58 405.205 148.567 405.174 148.547 405.131L148.53 405.095C148.484 404.996 148.458 404.945 148.415 404.88L147.952 404.257L146.774 402.698C146.572 402.427 146.368 402.151 146.142 401.845C144.204 399.214 142.325 396.498 140.559 393.693C138.904 391.066 137.46 388.533 136.281 386.14C132.121 377.697 131.789 372.245 135.71 370.478C140.428 368.351 144.051 372.277 146.913 381.131C147.691 383.537 148.307 385.961 148.945 388.918Z" fill="#00160A"/>
<path fill-rule="evenodd" clip-rule="evenodd" d="M139.585 232.468L140.982 233.739C158.298 249.546 170.354 262.158 176.781 270.91C187.998 286.186 197.038 302.031 204.656 318.809C207.363 324.771 209.814 330.675 212.229 336.943L212.887 338.662C213.64 340.642 214.368 342.597 215.161 344.764L218.542 354.09C227.684 379.123 224.658 380.343 215.954 355.994L212.535 346.552C211.819 344.59 211.163 342.818 210.504 341.068L210.008 339.757C207.399 332.9 204.775 326.524 201.85 320.082C194.316 303.489 185.381 287.828 174.297 272.734L173.789 272.05C167.205 263.282 154.981 250.608 137.514 234.748C136.884 234.177 136.837 233.202 137.409 232.572C137.981 231.943 138.955 231.896 139.585 232.468ZM99.054 197.552L120.618 215.959C122.64 217.693 124.216 219.052 124.968 219.715C125.606 220.277 125.667 221.251 125.105 221.889C124.542 222.527 123.569 222.588 122.93 222.026L117.318 217.188C109.866 210.804 98.0999 200.791 97.0504 199.893C96.4041 199.339 96.3287 198.367 96.882 197.721C97.4352 197.074 98.4076 196.999 99.054 197.552Z" fill="#00160A"/>
<path fill-rule="evenodd" clip-rule="evenodd" d="M138.908 243.243C136.077 243.885 135.124 246.102 136.316 248.883C138.304 253.521 145.676 255.917 158.457 256.573C159.877 256.646 160.623 254.914 159.594 253.933L149.868 244.655C149.673 244.47 149.433 244.339 149.172 244.275C144.429 243.119 141.053 242.757 138.908 243.243ZM148.048 247.158L154.39 253.206L154.009 253.17L153.051 253.069C144.887 252.155 140.243 250.261 139.134 247.674L139.018 247.397C138.679 246.546 138.802 246.412 139.587 246.234C141.034 245.905 143.742 246.164 147.602 247.054L148.048 247.158Z" fill="#00160A"/>
<path fill-rule="evenodd" clip-rule="evenodd" d="M129.906 452.188C126.045 454.411 127.618 456.726 135.944 460.421C144.929 464.461 161.65 472.261 190.371 474.458C234.855 477.861 275.359 471.44 326.49 471.44C397.278 471.44 428.35 486.994 453.126 483.407C519.542 473.791 534.588 455.129 514.774 450.314C493.021 445.027 423.88 445.673 400.605 444.153L393.402 443.691L387.215 443.536C320.222 441.89 212.837 443.536 191.865 443.536C149.081 443.536 129.906 452.188 129.906 452.188Z" fill="white"/>
<path fill-rule="evenodd" clip-rule="evenodd" d="M326.49 471.44C397.278 471.44 428.351 487.531 453.126 483.944C519.542 474.328 534.588 455.129 514.775 450.314C493.021 445.027 414 443.31 394.542 443.731C394.542 443.731 483.995 460.26 479.208 465.734C464.956 482.034 429.466 462.338 365.01 462.912C351.731 463.03 326.49 471.44 326.49 471.44Z" fill="#E7EAEE"/>
<path fill-rule="evenodd" clip-rule="evenodd" d="M196.111 444.234C194.388 444.244 193.004 444.248 191.865 444.248L189.912 444.253C162.098 444.383 141.811 447.307 128.965 453.103L128.764 453.206C125.764 454.934 124.614 457.478 126.5 460.091C127.719 461.781 130.271 463.376 134.58 465.317L138.242 466.953C142.812 468.978 145.522 470.074 149.591 471.505L150.033 471.66C161.77 475.761 174.796 478.56 190.196 479.739C201.139 480.576 212.29 480.863 224.515 480.693L228.794 480.618C236.832 480.453 243.679 480.171 256.188 479.499L277.81 478.302C298.414 477.187 310.984 476.741 325.824 476.728L326.49 476.728C353.05 476.728 374.746 478.749 398.811 482.689L400.899 483.037C404.525 483.667 424.469 487.181 429.975 487.972L430.166 487.999C439.774 489.351 446.884 489.622 453.454 488.671L455.29 488.4C485.122 483.943 506.679 477.303 517.566 469.956C528.443 462.616 527.458 454.207 515.675 451.181L515.315 451.091C505.529 448.713 486.954 447.392 458.093 446.527L452.173 446.359C450.448 446.313 448.665 446.267 446.79 446.221L421.664 445.64C411.988 445.401 406.055 445.195 401.564 444.921L393.549 444.408L387.272 444.249L380.892 444.104C362.391 443.719 340.294 443.534 315 443.518L307.48 443.518C289.854 443.529 271.611 443.615 251.243 443.768L196.111 444.234ZM320.882 448.1C346.128 448.143 368.017 448.364 386.118 448.797L393.345 448.977L401.561 449.504C406.083 449.774 412.003 449.977 421.531 450.213L445.733 450.771C448.586 450.841 451.223 450.909 453.752 450.979L459.679 451.152C487.193 452.007 505.077 453.311 514.234 455.536L514.783 455.675C522.378 457.668 522.627 461.022 515.007 466.164C504.587 473.195 461.814 492.033 431.587 485.611L430.197 485.414C423.808 484.464 402.396 479.662 401.135 479.452L398.032 478.944C374.854 475.212 353.698 473.256 328.197 473.172L324.488 473.172C309.239 473.212 296.104 473.722 273.787 474.957L258.3 475.82C243.321 476.636 236.179 476.928 226.86 477.097L226.11 477.11C178.848 478.944 150.033 467.935 150.033 467.935C146.261 466.588 136.502 463.198 136.502 463.198L135.776 462.866C113.008 455.136 162.717 448.954 189.953 448.827L198.443 448.794L247.765 448.369C270.726 448.191 290.941 448.094 310.496 448.092L320.882 448.1Z" fill="#00160A"/>
<path fill-rule="evenodd" clip-rule="evenodd" d="M425.913 411.221C425.913 411.221 425.793 418.001 427.881 421.139C429.968 424.277 435.789 433.006 441.203 435.302C442.871 436.01 449.238 436.1 453.064 438.335C460.749 442.826 462.46 450.914 453.064 452.628C434.409 456.03 427.881 446.197 427.881 446.197C427.881 446.197 420.195 435.302 412.493 428.078C404.791 420.853 398.654 418.678 398.654 418.678" fill="white"/>
<path d="M490.293 113.085C487.697 112.89 486.17 114.864 486.17 117.253C486.17 125.525 499.684 136.837 508.491 136.837C511.072 136.837 513.184 134.991 512.434 132.169C512.151 131.105 511.501 130.161 510.434 128.998L510.199 128.745C509 127.472 507.761 126.335 504.981 123.943L500.723 120.294C499.679 119.39 498.017 117.948 497.515 117.519L496.911 117.005C495.747 116.024 494.847 115.309 494.044 114.741C492.623 113.737 491.523 113.177 490.293 113.085Z" fill="white"/>
<path fill-rule="evenodd" clip-rule="evenodd" d="M403.962 275.267C403.962 275.267 398.845 260.663 385.695 256.709C381.516 255.452 399.795 283.038 383.662 293.328C378.626 296.54 369.672 298.207 358.654 299.775C309.54 306.767 294.732 288.44 264.414 279.49C252.257 275.902 193.125 260.027 184.184 340.892C178.588 391.507 220.974 407.194 258.96 415.236C335.056 431.348 451.659 424.998 488.025 371.895C531.373 308.596 464.749 253.472 455.362 247.645C453.088 246.234 459.607 264.324 460.331 273.473C461.055 282.623 455.362 285.95 455.362 285.95C455.362 285.95 453.118 276.263 433.278 274.601C413.439 272.939 403.962 275.267 403.962 275.267Z" fill="white"/>
<path fill-rule="evenodd" clip-rule="evenodd" d="M112.065 207.878C112.76 209.518 114.378 211.689 117.007 214.64C118.743 216.588 121.965 215.615 122.332 213.031C123.172 207.129 121.415 202.986 116.676 202.162C112.967 201.518 110.572 204.358 112.065 207.878ZM119.296 212.599L118.826 212.067C114.401 207.019 113.51 204.724 116.151 205.183C118.884 205.658 119.932 208.13 119.296 212.599Z" fill="#00160A"/>
<path fill-rule="evenodd" clip-rule="evenodd" d="M127.366 217.922C125.642 218.144 124.237 220.167 123.85 222.402C123.405 224.973 124.361 227.401 126.813 228.773L128.504 229.71C130.134 230.604 131.599 231.371 133.024 232.056L133.685 232.368C134.746 232.858 135.605 233.202 136.258 233.381C136.927 233.565 137.434 233.617 137.975 233.42C139.132 232.997 139.335 231.904 138.935 230.974L138.809 230.692C138.649 230.317 138.254 229.376 138.027 228.851L137.978 228.737C137.359 227.322 136.728 226.017 136.033 224.772C133.46 220.162 130.693 217.494 127.366 217.922ZM133.672 226.846C134.088 227.628 134.486 228.445 134.876 229.309L135.005 229.599L134.627 229.423L134.352 229.292C132.527 228.415 130.598 227.377 128.311 226.097C127.075 225.406 126.636 224.289 126.872 222.926C126.974 222.332 127.207 221.759 127.499 221.339C127.588 221.211 127.676 221.107 127.755 221.031L127.841 220.956L127.758 220.963C129.353 220.758 131.363 222.696 133.356 226.266L133.672 226.846Z" fill="#00160A"/>
<path fill-rule="evenodd" clip-rule="evenodd" d="M153.587 244.364C153.314 243.177 138.041 215.343 148.766 216.217C159.49 217.092 156.937 248.638 156.563 248.638C156.124 248.638 153.783 245.217 153.587 244.364Z" fill="white"/>
<path fill-rule="evenodd" clip-rule="evenodd" d="M143.419 220.363C143.419 223.026 144.308 226.552 145.901 230.835C146.38 232.121 146.916 233.457 147.505 234.844L147.865 235.681C149.28 238.943 152.117 244.815 152.093 244.708C152.245 245.371 152.882 246.477 153.723 247.693L154.031 248.136C155.059 249.595 155.57 250.123 156.437 250.168L156.803 250.178C157.843 250.232 157.842 250.59 158.082 249.077L158.169 248.523C158.205 248.297 158.242 248.001 158.279 247.648L158.301 247.43C158.398 246.447 158.484 245.163 158.542 243.76C158.694 240.133 158.651 236.251 158.354 232.63L158.273 231.711C157.315 221.558 154.529 215.149 148.89 214.689C145.287 214.395 143.418 216.65 143.419 220.363ZM148.641 217.745C152.234 218.038 154.543 223.67 155.298 232.881C155.584 236.366 155.626 240.124 155.479 243.631L155.428 244.674L155.373 244.581C155.225 244.327 155.123 244.134 155.091 244.05L155.081 244.021C155.015 243.734 151.939 237.367 150.678 234.461C149.966 232.82 149.329 231.254 148.775 229.766C147.299 225.799 146.486 222.57 146.485 220.363C146.485 218.353 147 217.662 148.479 217.735L148.641 217.745Z" fill="#00160A"/>
<path fill-rule="evenodd" clip-rule="evenodd" d="M195.735 300.91C195.735 300.91 199.094 296.243 200.982 293.925C202.87 291.607 204.895 289.667 204.895 289.667C204.895 289.667 159.287 285.128 143.489 273.369C122.859 258.014 104.354 232.546 85.7143 227.159C63.4305 220.72 55.1832 235.656 48.7558 236.874C29.1757 240.584 -6.68491 251.141 9.71278 283.028C14.7752 292.872 31.1746 297.45 42.7279 291.962C55.6239 285.836 71.5052 270.83 88.208 270.83C107.523 270.83 110.886 286.653 135.405 295.042C150.453 300.191 195.735 300.91 195.735 300.91Z" fill="white"/>
<path fill-rule="evenodd" clip-rule="evenodd" d="M250.041 413.745C250.041 413.745 261.175 425.899 265.789 433.718C270.402 441.538 268.786 445.778 275.191 449.392C284.813 454.822 294.731 453.452 299.144 450.565C303.557 447.678 299.417 440.288 290.166 440.288C287.891 440.288 285.214 435.063 283.919 431.607C282.623 428.15 283.216 419.643 283.216 419.643L250.041 413.745Z" fill="white"/>
<path fill-rule="evenodd" clip-rule="evenodd" d="M457.427 250.705C457.427 250.705 529.974 339.686 427.953 391.916C356.602 428.445 239.376 408.723 239.376 408.723C239.376 408.723 366.99 443.03 450.398 401.669C503.618 375.277 514.145 330.417 488.755 284.742C482.111 272.79 457.427 250.705 457.427 250.705Z" fill="#E7EAEE"/>
<path fill-rule="evenodd" clip-rule="evenodd" d="M453.166 246.268C454.08 245.057 455.505 245.042 456.568 245.702C459.993 247.828 466.189 252.973 472.149 259.009C480.421 267.386 487.807 276.879 493.47 287.11C508.976 315.124 507.591 344.452 487.912 373.188C470.517 398.588 436.486 413.918 388.717 420.785C346.935 426.791 298.566 425.96 258.486 417.474L256.476 417.042C233.539 412.035 216.629 405.674 203.835 395.843C187.055 382.948 179.228 364.905 181.911 340.64C185.972 303.911 200.493 283.498 222.383 276.347C230.52 273.688 239.236 273.035 248.231 273.922C254.399 274.531 259.578 275.678 265.061 277.297L266.036 277.588C271.993 279.395 277.062 281.389 284.881 284.853L290.661 287.442C302.638 292.811 309.569 295.357 318.541 297.166C329.831 299.443 342.262 299.711 357.345 297.649L359.582 297.331C371.893 295.536 378.501 293.907 382.432 291.4C387.033 288.465 388.675 283.708 388.017 277.122C387.718 274.126 386.974 270.965 385.8 267.281L385.476 266.287C384.969 264.782 383.488 260.552 383.215 259.633C382.878 258.495 382.723 257.702 382.778 256.964C382.917 255.114 384.539 253.972 386.353 254.518C395.946 257.403 402.835 265.781 407.066 279.363C407.442 280.57 406.769 281.852 405.563 282.228C404.357 282.603 403.074 281.93 402.699 280.724C399.478 270.385 394.774 263.659 388.615 260.374L388.21 260.165L389.876 265.021L389.922 265.161C394.15 283.192 391.009 297.331 362.569 301.7C361.004 301.94 329.555 304.646 316.498 301.415C296.716 296.52 268.642 278.252 251.812 277.588C234.982 276.924 231.281 278.252 223.803 280.695C203.739 287.25 187.052 308.48 183.684 343.543C181.906 362.058 191.907 380.818 208.306 392.375C250.041 421.785 346.824 423.186 388.066 417.257C434.692 410.554 469.618 394.725 486.137 370.603C504.763 343.405 504.186 315.917 489.468 289.326C484.022 279.488 476.89 270.321 468.894 262.223C465.252 258.535 461.528 255.201 458.505 252.77L457.996 252.364L458.438 254.107L459.854 259.55L460.372 261.589C460.452 261.911 460.53 262.225 460.605 262.535L460.875 263.654C461.832 267.675 462.414 270.796 462.611 273.293C463.158 280.195 461.159 285.211 456.516 287.925C455.425 288.562 454.024 288.195 453.387 287.104C452.749 286.013 453.117 284.612 454.208 283.975C457.155 282.253 458.47 278.951 458.051 273.654C457.875 271.439 457.327 268.506 456.418 264.686L456.162 263.622C456.05 263.167 455.935 262.701 455.812 262.215L453.819 254.512C453.522 253.346 453.299 252.429 453.121 251.63L453.068 251.394C452.764 250.007 452.605 249.013 452.596 248.265C452.587 247.5 452.696 246.89 453.166 246.268Z" fill="#00160A"/>
<path fill-rule="evenodd" clip-rule="evenodd" d="M403.779 272.746L405.414 272.471C416.204 270.691 424.912 270.048 431.567 270.552C438.588 271.083 446.031 272.981 453.895 276.236C454.933 276.665 455.426 277.855 454.996 278.892C454.567 279.93 453.378 280.423 452.34 279.993C444.856 276.896 437.829 275.104 431.26 274.606C424.658 274.106 415.717 274.818 404.469 276.754C403.363 276.944 402.311 276.202 402.121 275.095C401.93 273.988 402.673 272.937 403.779 272.746Z" fill="#00160A"/>
<path fill-rule="evenodd" clip-rule="evenodd" d="M416.784 263.624C421.654 262.623 426.102 263.141 430.071 265.19C433.87 267.153 437.161 269.621 439.938 272.593C440.519 273.215 440.486 274.19 439.864 274.771C439.243 275.352 438.268 275.318 437.687 274.697C435.154 271.986 432.147 269.73 428.657 267.928C425.336 266.213 421.605 265.779 417.404 266.641C416.571 266.813 415.756 266.276 415.585 265.442C415.414 264.609 415.951 263.795 416.784 263.624Z" fill="#00160A"/>
<path fill-rule="evenodd" clip-rule="evenodd" d="M426.631 255.556C427.068 254.826 428.014 254.588 428.744 255.025C432.65 257.361 435.884 259.975 438.439 262.87C441.019 265.793 443.137 269.53 444.804 274.07C445.097 274.869 444.687 275.754 443.888 276.047C443.089 276.34 442.204 275.93 441.911 275.132C440.37 270.932 438.44 267.527 436.129 264.909C433.794 262.263 430.807 259.849 427.163 257.669C426.432 257.232 426.195 256.287 426.631 255.556Z" fill="#00160A"/>
<path fill-rule="evenodd" clip-rule="evenodd" d="M381.997 292.162C382.641 291.242 383.909 291.019 384.828 291.663C385.748 292.307 366.118 320.263 366.118 325.687C366.118 331.569 369.007 335.505 376.704 341.714L379.965 344.307L380.914 345.068C385.684 348.922 388.463 351.626 390.825 355.06C394.126 359.858 395.68 365.216 395.284 371.57C394.796 379.407 392.431 384.823 387.746 391.073L387.321 391.632C386.795 392.312 384.476 395.274 383.841 396.142C381.574 399.237 380.507 401.568 380.313 404.304C379.458 416.361 385.131 430.921 397.452 447.928C398.11 448.838 397.907 450.109 396.998 450.768C396.089 451.426 394.817 451.223 394.159 450.314C381.329 432.604 375.322 417.189 376.257 404.016C376.505 400.523 377.778 397.627 380.256 394.158L380.56 393.739C381.289 392.743 383.949 389.349 384.173 389.055C388.637 383.2 395.089 374.633 389.923 358.331C387.321 350.123 362.622 344.307 361.81 326.836C361.619 322.72 368.481 311.455 381.997 292.162Z" fill="#00160A"/>
<path d="M389.472 376.689L386.635 376.72C369.838 376.935 359.621 377.781 356.465 379.135L356.35 379.186C351.709 381.314 348.059 384.2 345.268 387.659C343.101 390.345 341.57 393.224 340.569 396.099C340.271 396.955 340.039 397.756 339.867 398.485L339.75 399.002L344.608 405.228C344.657 405.29 344.701 405.354 344.741 405.42L344.789 405.487L344.942 405.711C345.991 407.233 347.183 408.721 348.716 410.456L349.422 411.242C350.681 412.616 354.688 416.935 356.049 418.49C358.962 421.816 361.415 425.015 363.764 428.689C367.345 434.289 370.504 440.756 373.34 448.587L373.544 449.159L373.747 449.747C373.995 450.472 374.237 451.217 374.501 452.057L375.698 455.983C377.465 461.771 378.7 464.429 380.658 466.039L380.987 466.302C383.553 468.301 385.944 468.794 392.593 469.005L394.536 469.059C403.374 469.301 407.984 462.282 402.927 457.182C401.341 455.583 396.11 454.343 387.555 453.824C386.434 453.756 387.486 450.868 387.555 449.747C387.623 448.626 388.586 447.773 389.707 447.841C390.698 447.901 391.65 447.97 392.563 448.048C381.232 431.626 375.701 417.631 376.58 405.228C376.828 401.734 376.453 400.367 378.932 396.898L379.405 396.249C380.308 395.044 382.64 392.069 382.849 391.795C384.757 389.292 386.086 387.241 387.153 385.003L387.362 384.553L387.433 384.391L387.551 384.13C388.112 382.846 388.706 380.634 389.311 377.534L389.472 376.689Z" fill="white"/>
<path fill-rule="evenodd" clip-rule="evenodd" d="M341.72 396.643C343.322 401.317 346.117 404.169 350.008 408.584L350.555 409.198C351.527 410.267 355.933 415.01 357.374 416.656C360.287 419.982 362.74 423.181 365.089 426.855C368.67 432.455 371.829 438.922 374.664 446.753C374.801 447.13 374.936 447.516 375.072 447.913L375.443 449.025C375.526 449.279 375.61 449.54 375.695 449.81L376.18 451.371C376.428 452.183 376.93 453.845 377.023 454.149L377.29 455.015C378.919 460.207 380.126 462.678 381.983 464.205L382.312 464.468C384.769 466.382 387.065 466.915 393.092 467.142L395.861 467.225C404.699 467.467 409.309 460.449 404.251 455.349C402.665 453.749 397.435 452.509 388.879 451.99C387.759 451.922 386.905 450.958 386.973 449.837C387.041 448.716 388.005 447.863 389.126 447.931L390.193 448C399.127 448.619 404.681 450.007 407.139 452.485C415.055 460.469 408.006 471.4 396.111 471.297L394.68 471.261C386.188 471.032 383.143 470.424 379.4 467.346C376.73 465.15 375.28 462.199 373.416 456.251L372.209 452.291L371.822 451.047C371.656 450.526 371.499 450.043 371.342 449.575L371.224 449.228C371.096 448.853 370.969 448.491 370.841 448.138C368.106 440.585 365.08 434.388 361.663 429.046C359.604 425.825 357.459 422.987 354.95 420.067L354.315 419.335C352.847 417.659 348.065 412.516 347.4 411.772C343.064 406.925 340.473 403.01 338.624 397.85L338.436 397.312C334.84 386.821 330.223 383.241 324.192 385.477C323.139 385.868 311.355 391.52 322.768 383.932C334.18 376.343 341.72 396.643 341.72 396.643Z" fill="#00160A"/>
<path fill-rule="evenodd" clip-rule="evenodd" d="M412.672 324.41C410.456 324.41 407.277 318.047 407.277 314.937C407.277 311.828 415.232 312.88 415.232 312.88C415.232 312.88 423.587 314 422.435 317.127C421.284 320.255 413.903 324.41 412.672 324.41Z" fill="#FFB61D"/>
<ellipse cx="399.575" cy="301.517" rx="4.38775" ry="8.1971" fill="#00160A"/>
<ellipse cx="441.538" cy="303.371" rx="4.80869" ry="8.0687" fill="#00160A"/>
<path fill-rule="evenodd" clip-rule="evenodd" d="M438.4 316.917C442.063 315.344 446.116 315.046 450.517 316.007C454.821 316.947 467.786 325.062 467.333 325.781C466.88 326.501 453.751 319.867 449.86 319.017C446.065 318.189 442.665 318.438 439.616 319.748C438.834 320.084 437.928 319.722 437.592 318.941C437.256 318.159 437.618 317.253 438.4 316.917Z" fill="#00160A"/>
<path fill-rule="evenodd" clip-rule="evenodd" d="M440.733 322.242C444.578 322.445 445.58 321.568 450.847 324.987C456.114 328.406 460.05 336.458 459.329 336.911C458.609 337.363 454.406 330.182 449.582 326.566C444.758 322.95 439.069 324.548 439.114 323.699C439.156 322.896 439.805 322.27 440.593 322.241L440.733 322.242Z" fill="#00160A"/>
<path fill-rule="evenodd" clip-rule="evenodd" d="M414.032 327.748C412.963 334.387 413.232 338.614 413.632 343.329C414.032 348.045 417.802 354.835 418.18 357.673C418.558 360.511 411.049 348.808 410.595 343.846C410.14 338.885 406.922 325.399 412.544 326.026C412.544 326.026 414.151 327.01 414.032 327.748Z" fill="#00160A"/>
<path fill-rule="evenodd" clip-rule="evenodd" d="M386.051 317.729C389.465 317.729 390.849 317.813 394.173 318.468C395.008 318.632 395.552 319.442 395.388 320.276C395.223 321.111 394.413 321.655 393.579 321.491C392.395 321.258 390.126 320.268 386.363 320.308C381.22 320.362 376.744 323.216 376.52 322.744C376.155 321.975 382.637 317.729 386.051 317.729Z" fill="#00160A"/>
<path fill-rule="evenodd" clip-rule="evenodd" d="M391.635 311.115C392.463 311.31 392.976 312.14 392.781 312.968C392.586 313.796 391.756 314.309 390.928 314.113C383.531 312.369 377.597 312.416 373.411 312.252C369.294 312.091 360.059 312.736 359.788 311.93C359.518 311.123 384.063 309.329 391.635 311.115Z" fill="#00160A"/>
<path fill-rule="evenodd" clip-rule="evenodd" d="M425.949 409.188C427.072 409.207 427.966 410.134 427.946 411.256C427.873 415.402 428.453 418.329 429.574 420.013C434.273 427.079 438.259 431.845 441.997 433.431C442.099 433.474 442.342 433.536 442.72 433.609L443.281 433.71C443.701 433.78 445.476 434.048 445.786 434.097C446.955 434.282 447.918 434.459 448.858 434.672C450.934 435.143 452.66 435.745 454.09 436.58C458.386 439.09 461.221 442.76 461.497 446.368C461.816 450.538 458.785 453.651 453.429 454.628C440.276 457.027 431.069 454.676 426.219 447.369C421.171 440.213 416.13 434.277 411.102 429.561C406.155 424.92 401.762 421.937 397.974 420.594C396.916 420.219 396.362 419.057 396.738 417.998C397.113 416.94 398.275 416.386 399.333 416.761C403.728 418.319 408.562 421.603 413.884 426.595C419.126 431.512 424.343 437.655 429.575 445.072C433.396 450.829 440.979 452.765 452.699 450.628C456.175 449.994 457.585 448.545 457.442 446.678C457.281 444.575 455.281 441.986 452.038 440.091C451.025 439.499 449.665 439.025 447.959 438.638C447.225 438.471 446.458 438.327 445.549 438.178L442.611 437.721L442.043 437.621C441.339 437.488 440.838 437.356 440.409 437.174C437.614 435.988 434.742 433.437 431.734 429.841C429.752 427.47 428.23 425.335 426.188 422.265C424.525 419.765 423.794 416.08 423.88 411.185C423.9 410.062 424.826 409.168 425.949 409.188Z" fill="#00160A"/>
<path fill-rule="evenodd" clip-rule="evenodd" d="M442.371 446.698C442.572 446.025 443.28 445.643 443.953 445.844C446.046 446.469 447.528 447.16 448.432 447.982C449.289 448.761 450.135 449.956 451.003 451.579C451.334 452.198 451.101 452.968 450.482 453.299C449.863 453.63 449.093 453.396 448.762 452.778C448.019 451.389 447.329 450.414 446.723 449.863C446.163 449.354 444.985 448.805 443.225 448.279C442.553 448.078 442.171 447.37 442.371 446.698Z" fill="#00160A"/>
<path fill-rule="evenodd" clip-rule="evenodd" d="M449.001 444.008C449.223 443.343 449.942 442.982 450.608 443.204C452.401 443.8 453.734 444.481 454.619 445.285C455.497 446.083 456.34 447.372 457.193 449.168C457.494 449.802 457.224 450.56 456.59 450.861C455.956 451.162 455.198 450.892 454.897 450.258C454.173 448.735 453.496 447.698 452.91 447.166C452.331 446.64 451.292 446.11 449.806 445.615C449.14 445.394 448.78 444.674 449.001 444.008Z" fill="#00160A"/>
<path fill-rule="evenodd" clip-rule="evenodd" d="M394.6 461.52C394.821 460.854 395.541 460.494 396.206 460.716C397.999 461.312 399.332 461.993 400.217 462.797C401.095 463.595 401.938 464.884 402.791 466.68C403.092 467.314 402.822 468.072 402.188 468.373C401.554 468.674 400.796 468.404 400.495 467.77C399.771 466.247 399.094 465.21 398.508 464.678C397.93 464.152 396.891 463.622 395.404 463.127C394.738 462.906 394.378 462.186 394.6 461.52Z" fill="#00160A"/>
<path fill-rule="evenodd" clip-rule="evenodd" d="M398.296 457.207C398.518 456.541 399.237 456.181 399.903 456.403C401.696 456.999 403.029 457.679 403.914 458.484C404.792 459.281 405.634 460.57 406.487 462.367C406.788 463.001 406.518 463.759 405.884 464.06C405.25 464.361 404.493 464.091 404.192 463.457C403.468 461.933 402.791 460.897 402.205 460.365C401.626 459.839 400.587 459.309 399.101 458.814C398.435 458.592 398.075 457.873 398.296 457.207Z" fill="#00160A"/>
<path fill-rule="evenodd" clip-rule="evenodd" d="M248.668 412.246C249.496 411.488 263.53 427.584 266.54 432.685C267.51 434.329 268.276 435.912 268.957 437.605C269.166 438.127 269.362 438.643 269.573 439.226L270.371 441.48C271.555 444.771 273.522 446.116 276.19 447.622C284.017 452.038 293.26 451.985 298.03 448.864C300.676 447.133 297.103 442.321 290.166 442.321C286.924 442.321 284.135 437.975 282.015 432.32C281.022 429.672 280.773 425.443 281.187 419.502C281.266 418.382 282.237 417.537 283.357 417.615C284.477 417.693 285.322 418.664 285.244 419.785C284.867 425.186 285.088 428.933 285.822 430.893L286.036 431.446C287.464 435.027 289.565 438.255 290.166 438.255C295.054 438.255 299.188 440.138 301.411 443.132C303.763 446.299 303.453 450.176 300.257 452.266C294.178 456.244 283.307 456.307 274.192 451.163C270.669 449.175 269.125 447.115 267.68 443.226L266.904 441.041C266.645 440.311 266.423 439.717 266.184 439.122C265.576 437.611 264.899 436.211 264.038 434.752C261.047 429.683 255.877 423.126 248.542 415.119C247.783 414.291 247.84 413.005 248.668 412.246Z" fill="#00160A"/>
<path fill-rule="evenodd" clip-rule="evenodd" d="M286.318 446.698C286.519 446.025 287.227 445.643 287.899 445.844C289.993 446.469 291.474 447.16 292.378 447.982C293.235 448.761 294.082 449.956 294.95 451.579C295.281 452.198 295.048 452.968 294.429 453.299C293.81 453.63 293.04 453.396 292.709 452.778C291.966 451.389 291.276 450.414 290.669 449.863C290.109 449.354 288.932 448.805 287.172 448.279C286.5 448.078 286.117 447.37 286.318 446.698Z" fill="#00160A"/>
<path fill-rule="evenodd" clip-rule="evenodd" d="M291.1 444.625C291.321 443.959 292.041 443.599 292.706 443.82C294.499 444.417 295.832 445.097 296.717 445.901C297.595 446.699 298.438 447.988 299.291 449.785C299.592 450.419 299.322 451.177 298.688 451.478C298.054 451.779 297.296 451.509 296.995 450.875C296.271 449.351 295.594 448.315 295.008 447.782C294.43 447.257 293.391 446.726 291.904 446.232C291.238 446.01 290.878 445.291 291.1 444.625Z" fill="#00160A"/>
<path fill-rule="evenodd" clip-rule="evenodd" d="M56.7171 229.57L56.2874 229.866C54.927 230.817 52.3069 232.728 51.7299 233.134L51.6707 233.175C50.1758 234.205 49.1662 234.727 48.3772 234.876C34.4368 237.517 22.3974 240.473 14.1561 246.713C2.63252 255.438 -3.59228 270.695 4.30346 286.049C9.92199 296.974 31.1625 299.707 43.6003 293.798C45.7283 292.787 47.995 291.522 50.7297 289.849L51.8665 289.147C52.2599 288.902 52.6645 288.648 53.0952 288.376L56.073 286.475L59.3287 284.39L60.5204 283.637C72.4913 276.116 80.0969 272.863 88.2079 272.863C94.9124 272.863 99.6306 274.704 105.558 279.052L106.005 279.383C107.034 280.152 113.713 285.48 115.969 287.122C121.812 291.377 127.582 294.515 134.746 296.966L135.376 297.175C145.86 300.568 165.914 302.47 195.702 302.943C196.368 302.954 196.996 302.638 197.385 302.098L198.546 300.495C200.214 298.206 201.553 296.443 202.558 295.209C203.765 293.727 205.013 292.37 206.301 291.135C207.555 289.934 206.823 287.816 205.096 287.644L203.304 287.462C174.228 284.437 154.656 279.147 144.703 271.738L143.977 271.194C138.669 267.18 133.599 262.65 125.872 255.236L115.885 245.643C111.937 241.881 110.549 240.658 107.783 238.308L107.35 237.941C100.883 232.457 95.2722 228.697 89.8296 226.454C88.6352 225.962 87.4524 225.545 86.2787 225.206C74.1592 221.704 65.4587 223.65 56.7171 229.57ZM85.1498 229.113C86.1775 229.41 87.2203 229.777 88.2801 230.214C93.103 232.201 98.2078 235.582 104.125 240.541L106.441 242.509C108.99 244.701 110.755 246.341 116.629 251.986L123.595 258.687C131.485 266.24 136.652 270.815 142.275 275L142.605 275.243C152.819 282.663 171.373 287.878 198.364 291.009L200.572 291.258L200.541 291.293C200.286 291.585 200.033 291.883 199.782 292.184L199.227 292.861L198.803 293.393C197.997 294.412 197.039 295.677 195.927 297.189L194.706 298.859L192.235 298.814C164.216 298.245 145.44 296.327 136.063 293.118C129.57 290.897 124.313 288.089 119 284.295L118.362 283.835C116.197 282.259 109.544 276.952 108.438 276.126C101.651 271.056 96.0621 268.797 88.2079 268.797C79.1029 268.797 70.9626 272.274 58.3777 280.18L56.4436 281.407L52.2961 284.066C51.0652 284.851 50.0923 285.465 49.1466 286.049L48.0961 286.691C45.7031 288.141 43.7047 289.247 41.8554 290.125C31.3116 295.134 16.0832 290.97 11.5209 282.098C4.54265 268.528 6.998 258.555 16.9699 251.005C24.5877 245.238 35.7615 241.405 49.1342 238.871C50.5339 238.606 51.8829 237.936 53.6428 236.752L53.9777 236.524C54.4994 236.164 57.6635 233.853 58.8713 233.023L58.9972 232.937C66.8046 227.649 74.2916 225.975 85.1498 229.113Z" fill="#00160A"/>
<path fill-rule="evenodd" clip-rule="evenodd" d="M572.085 284.371L571.893 284.837L571.507 285.799C566.506 298.486 562.092 317.925 558.237 344.161L558.013 345.702L558 345.627C556.507 336.829 554.622 329.993 552.328 325.096C548.342 316.589 542.664 313.378 535.953 316.43C514.176 326.337 515.476 366.621 538.538 437.413C538.844 438.355 539.722 438.992 540.713 438.992H565.749C566.421 438.992 567.059 438.697 567.494 438.184C598.758 401.309 612.758 376.518 609.336 362.898L609.225 362.466C606.11 350.748 598.321 348.238 587.215 354.534L586.82 354.76L587.373 353.486C606.642 308.849 610.178 281.364 597.158 270.652C587.599 262.788 578.877 267.991 572.085 284.371ZM594.624 272.419C606.086 281.849 602.012 312.729 580.27 360.59C579.276 362.779 604.899 345.627 604.899 364.012L604.981 364.362C607.448 375.679 594.716 398.525 566.644 432.091L564.687 434.417L540.713 436.126C540.713 436.126 508.391 329.405 537.848 320.594C546.324 318.059 552.578 330.369 555.68 363.667C555.934 366.394 559.894 366.452 560.228 363.734L560.499 361.54C564.955 325.927 570.242 300.758 576.311 286.123L576.658 285.298C582.326 272.027 588.22 267.15 594.624 272.419Z" fill="#00160A"/>
<path d="M594.251 274.185C605.713 283.615 601.069 312.49 579.327 360.351C578.332 362.539 580.954 364.584 582.834 363.086L583.598 362.484C595.951 352.869 602.284 353.604 604.899 364.012L604.981 364.362C607.448 375.679 594.716 398.525 566.644 432.091L564.687 434.417H542.375L541.574 431.924C520.54 365.997 519.71 328.846 537.848 320.594C546.215 316.788 552.578 330.369 555.68 363.667C555.934 366.394 559.894 366.452 560.228 363.734L560.499 361.54C564.955 325.927 570.242 300.758 576.311 286.123L576.658 285.298C582.326 272.027 587.847 268.916 594.251 274.185Z" fill="white"/>
<circle cx="534.647" cy="349.759" r="8.13278" fill="#E7EAEE"/>
<circle cx="585.477" cy="296.896" r="8.13278" fill="#E7EAEE"/>
<circle cx="589.543" cy="375.174" r="8.13278" fill="#E7EAEE"/>
<path fill-rule="evenodd" clip-rule="evenodd" d="M158.485 444.642C144.13 444.869 94.7622 448.527 93.9094 446.695C92.8184 444.352 146.653 441.271 158.388 441.085L162.064 441.035C172.734 440.92 158.485 444.642 158.485 444.642ZM369.654 439.883C370.917 439.85 371.968 440.847 372.001 442.11C372.034 443.372 371.038 444.423 369.775 444.457L349.342 444.961C336.625 445.253 321.885 445.556 300.103 445.985C298.84 446.01 297.796 445.006 297.771 443.743C297.747 442.48 298.75 441.436 300.013 441.411L338.583 440.625C350.293 440.372 359.7 440.146 369.654 439.883ZM422.355 438.818C423.618 438.798 424.658 439.805 424.678 441.069C424.698 442.332 423.69 443.372 422.427 443.392L417.067 443.457L400.668 443.571C397.234 443.606 394.546 443.653 391.377 443.73C390.115 443.761 389.066 442.763 389.035 441.5C389.004 440.237 390.003 439.188 391.265 439.157L395.299 439.07C397.94 439.022 400.624 438.992 404.19 438.966L417.827 438.875C419.412 438.86 420.848 438.841 422.355 438.818ZM570.594 434.417C570.594 434.417 574.701 433.709 604.684 435.953C605.943 436.048 606.888 437.145 606.794 438.405C606.699 439.665 591.873 439.028 571.604 438.993L566.03 439.002C551.147 439.068 537.321 439.471 514.374 440.415L485.411 441.639C473.052 442.145 465.678 442.391 456.712 442.603C455.449 442.633 454.401 441.633 454.371 440.37C454.341 439.107 455.341 438.059 456.604 438.03L463.804 437.841C472.369 437.594 481.171 437.249 496.776 436.583L513.324 435.88C539.197 434.81 553.585 434.417 570.594 434.417Z" fill="#00160A"/>
<path d="M501.287 105.158L501.811 104.194C505.913 96.7655 509.486 93.0773 513.652 94.2806C513.99 94.3782 514.321 94.5113 514.645 94.6793C517.199 96.0029 517.812 98.4642 517.095 101.823L517.049 102.03L517.169 101.857C518.379 100.139 519.533 98.8114 520.729 97.8264L520.986 97.6205C523.646 95.5502 526.467 95.3577 529.023 97.5146C533.102 100.959 532.64 106.736 529.309 110.291L529.124 110.483C528.661 110.951 528.382 111.964 528.071 114.348L527.802 116.437C527.479 118.847 527.262 119.904 526.754 121.537C525.794 124.621 524.219 127.193 521.768 129.294C518.687 131.935 513.486 131.566 506.161 128.556C505.374 128.233 504.999 127.333 505.322 126.546C505.645 125.759 495.048 116.413 494.727 116.822L494.624 116.942C494.034 117.555 493.059 117.575 492.446 116.985L490.957 115.551C490.06 114.686 490.507 113.17 491.729 112.93C493.968 112.491 495.705 112.006 496.926 111.489C497.951 111.054 498.51 110.638 498.644 110.369C498.644 110.369 500.869 105.937 501.287 105.158Z" fill="white"/>
<path fill-rule="evenodd" clip-rule="evenodd" d="M490.293 113.085C487.697 112.89 486.17 114.864 486.17 117.253C486.17 125.525 499.684 136.837 508.49 136.837C511.071 136.837 513.183 134.991 512.434 132.169C512.151 131.105 511.5 130.161 510.434 128.998L510.199 128.745C509 127.472 507.76 126.335 504.981 123.943L500.723 120.294C499.678 119.39 498.017 117.948 497.515 117.519L496.91 117.005C495.747 116.024 494.847 115.309 494.043 114.741C492.623 113.737 491.522 113.177 490.293 113.085ZM489.251 117.253C489.251 114.019 493.884 118.49 499.461 123.275L503.166 126.445C507.701 130.355 513.237 134.423 510.434 134.721C501.552 135.667 489.251 123.889 489.251 117.253Z" fill="#00160A"/>
<path fill-rule="evenodd" clip-rule="evenodd" d="M491.005 91.4074C491.641 90.8431 494.821 88.6228 493.179 91.5383C491.537 94.4539 482.042 98.1517 491.537 112.896C491.898 113.456 491.458 114.582 490.666 114.893C489.874 115.204 488.98 114.814 488.669 114.022C486.269 107.908 485.158 103.482 485.371 100.604C485.596 97.555 487.51 94.5051 491.005 91.4074Z" fill="#00160A"/>
<path fill-rule="evenodd" clip-rule="evenodd" d="M479.142 96.5403C479.309 95.7061 480.955 93.6419 480.955 95.3328C480.955 97.0237 478.536 101.313 481.941 106.146C485.345 110.979 491.203 114.256 490.702 114.944C490.201 115.632 489.237 115.783 488.55 115.282C483.621 111.691 480.628 108.882 479.5 106.681C478.324 104.383 478.243 101.021 479.142 96.5403Z" fill="#00160A"/>
<path fill-rule="evenodd" clip-rule="evenodd" d="M501.287 105.158L501.811 104.194C505.913 96.7655 509.486 93.0773 513.652 94.2806C513.99 94.3782 514.321 94.5113 514.645 94.6793C517.199 96.0029 517.812 98.4642 517.095 101.823L517.049 102.03L517.169 101.857C518.379 100.139 519.533 98.8114 520.729 97.8264L520.986 97.6205C523.646 95.5502 526.467 95.3577 529.023 97.5146C533.102 100.959 532.64 106.736 529.309 110.291L529.124 110.483C528.661 110.951 528.382 111.964 528.071 114.348L527.802 116.437C527.479 118.847 527.262 119.904 526.754 121.537C525.794 124.621 524.219 127.193 521.768 129.294C518.687 131.935 513.486 131.566 506.161 128.556C505.374 128.233 504.999 127.333 505.322 126.546C505.645 125.759 516.736 132.203 520.986 127.193C525.236 122.183 525.695 111.82 526.92 108.679L527.217 108.131C529.567 105.755 529.646 102.073 527.035 99.8688C525.688 98.7318 524.467 98.8151 522.878 100.052C521.431 101.178 519.923 103.113 518.183 105.928L517.674 106.767C516.818 108.211 515.103 111.204 514.876 111.585L514.563 112.103C513.508 113.827 512.163 114.907 511.963 114.953C511.764 115 511.48 114.839 511.41 113.381C511.387 112.901 511.509 112.419 511.764 111.762L511.866 111.508C512.175 110.756 513.877 107.22 513.994 106.966C514.51 105.853 514.925 104.882 515.269 103.967C516.654 100.277 514.593 98.1222 513.228 97.4146C513.081 97.3387 512.938 97.2812 512.797 97.2405C510.681 96.6295 507.737 99.7703 504.3 106.063L503.555 107.456C503.005 108.506 502.466 109.586 501.406 111.732C500.636 113.293 498.58 114.412 495.152 115.314L494.964 115.361L494.981 115.406C495.131 115.88 495.048 116.413 494.727 116.822L494.624 116.942C494.034 117.555 493.059 117.575 492.446 116.985L490.957 115.551C490.06 114.686 490.507 113.17 491.729 112.93C493.968 112.491 495.705 112.006 496.926 111.489C497.951 111.054 498.51 110.638 498.644 110.369L500.084 107.472C500.526 106.596 500.869 105.937 501.287 105.158Z" fill="#00160A"/>
<ellipse cx="521.5" cy="109.869" rx="3.5" ry="2.86947" fill="#FFB61D"/>
<ellipse cx="511.5" cy="101.869" rx="3.5" ry="2.86947" fill="#FFB61D"/>
<path fill-rule="evenodd" clip-rule="evenodd" d="M489.984 121.996C489.495 121.562 488.885 120.781 488.347 119.935L487.654 120.243L486.835 120.594C486.67 120.67 486.564 120.728 486.531 120.776C486.437 120.952 486.219 121.019 486.041 120.926C485.868 120.833 485.798 120.615 485.893 120.439C485.958 120.272 486.418 119.749 487.273 119.238C487.427 119.145 487.598 119.059 487.782 118.974C487.467 118.385 487.219 117.815 487.103 117.359C486.927 116.685 487.068 116.208 487.299 116.04C487.525 115.874 488.094 115.843 488.959 116.562C489.118 116.683 489.143 116.909 489.022 117.067C488.902 117.224 488.676 117.253 488.517 117.132C488.352 117.01 488.186 116.941 488.052 116.892L488.117 117.149C488.143 117.242 488.175 117.338 488.219 117.431C488.374 117.771 488.571 118.158 488.792 118.556C489.469 118.3 490.239 118.068 491.07 117.957C491.476 117.902 491.889 117.891 492.318 117.895C492.564 117.879 492.779 118.066 492.795 118.313C492.811 118.56 492.623 118.774 492.377 118.79C491.376 118.887 490.452 119.139 489.635 119.424L489.368 119.52C489.809 120.21 490.282 120.838 490.688 121.192C490.908 121.386 490.93 121.724 490.738 121.946C490.54 122.169 490.204 122.191 489.984 121.996Z" fill="#FFB61D"/>
<path fill-rule="evenodd" clip-rule="evenodd" d="M254.826 397.117C252.297 409.032 240.092 412.412 240.224 422.004C240.292 426.966 241.662 431.082 242.787 434.247C245.074 440.683 251.034 447.312 253.794 453.449C256.153 458.694 267.989 455.146 268.934 463.298C269.449 467.738 261.076 470.296 258.797 470.469C255.527 470.717 251.381 469.594 246.36 467.099C240.253 464.133 235.351 461.794 231.802 457.519C231.111 456.686 230.676 454.332 229.91 450.631C229.073 446.581 226.212 436.285 218.737 419.662C217.67 417.288 213.584 407.572 209.039 397.634C205.289 389.433 220.788 373.004 227.66 373.579C244.542 374.99 256.612 388.7 254.826 397.117Z" fill="white"/>
<path fill-rule="evenodd" clip-rule="evenodd" d="M242.99 467.275C238.787 464.773 235.331 461.89 232.621 458.625C231.929 457.791 231.42 454.72 230.655 451.019C230.254 449.079 215.664 414.076 210.851 400.902C209.953 398.443 212.133 400.164 212.645 400.902C215.437 404.925 232.621 431.465 240.831 456.053" fill="#E7EAEE"/>
<path fill-rule="evenodd" clip-rule="evenodd" d="M246.265 466.229L246.89 466.537C251.612 468.884 255.424 469.916 258.269 469.701C261.326 469.469 266.315 466.713 266.535 464.367C266.889 460.6 265.869 459.531 260.83 457.628C259.368 457.076 255.416 457.196 249.326 458.118C248.216 458.286 247.179 457.523 247.011 456.412C246.843 455.302 247.607 454.266 248.717 454.098L249.719 453.95C255.949 453.058 260.031 452.979 262.267 453.824L262.93 454.08C268.978 456.472 271.129 458.945 270.584 464.747C270.121 469.664 263.373 473.392 258.577 473.756C254.999 474.027 250.688 472.899 245.607 470.438L245.097 470.187C238.741 467.1 233.682 463.305 229.938 458.794C229.444 458.2 229.129 457.409 228.805 456.195L228.73 455.907C228.61 455.435 228.491 454.912 228.351 454.257L227.545 450.302L227.421 449.725C226.094 443.786 222.254 432.826 216.434 419.806L215.547 417.847C215 416.655 207.196 404.007 206.613 401.043C204.435 389.962 213.341 384.472 213.341 384.472C213.341 384.472 208.722 394.218 210.024 399.01C211.036 402.735 219.577 415.552 222.615 425.379C225.759 435.548 229.05 446.399 233.857 455.27C237.486 461.968 240.084 465.002 246.265 466.229Z" fill="#00160A"/>
<path fill-rule="evenodd" clip-rule="evenodd" d="M256.126 463.951C256.327 463.278 257.035 462.896 257.707 463.097C259.801 463.722 261.282 464.413 262.186 465.235C263.043 466.014 263.89 467.209 264.758 468.832C265.089 469.451 264.855 470.221 264.236 470.552C263.617 470.883 262.847 470.649 262.517 470.031C261.774 468.642 261.084 467.667 260.477 467.116C259.917 466.607 258.74 466.058 256.98 465.532C256.307 465.331 255.925 464.623 256.126 463.951Z" fill="#00160A"/>
<path fill-rule="evenodd" clip-rule="evenodd" d="M259.675 460.029C259.896 459.363 260.616 459.003 261.282 459.225C263.075 459.821 264.407 460.501 265.292 461.306C266.17 462.103 267.013 463.392 267.866 465.189C268.167 465.823 267.897 466.581 267.263 466.882C266.629 467.183 265.871 466.913 265.57 466.279C264.847 464.755 264.169 463.719 263.583 463.187C263.005 462.661 261.966 462.131 260.479 461.636C259.813 461.414 259.453 460.695 259.675 460.029Z" fill="#00160A"/>
<path fill-rule="evenodd" clip-rule="evenodd" d="M246.951 378.131C251.422 379.929 260.214 389.898 258.854 395.496C257.448 401.285 255.385 403.598 252.103 407.436L251.759 407.832C250.758 408.971 246.624 413.171 246.46 413.348L246.068 413.78C242.384 417.938 240.878 422.534 243.875 431.007C246.071 437.213 249.682 444.267 254.666 450.995C255.324 451.882 256.96 454.489 256.072 455.146C255.185 455.804 253.084 453.679 252.427 452.791C247.218 445.761 243.441 438.946 241.104 432.341C237.574 422.362 238.426 418.25 243.298 412.878L243.608 412.543C244.13 412 247.712 408.357 248.66 407.299L248.755 407.191C251.816 403.709 253.834 400.021 255.129 394.691C256.024 391.007 252.262 384.465 244.312 379.157C239.035 375.633 242.481 376.332 246.951 378.131Z" fill="#00160A"/>
</svg>
