<svg width="230" height="188" viewBox="0 0 230 188" fill="none" xmlns="http://www.w3.org/2000/svg">
<rect width="207.811" height="106.079" transform="matrix(0.999604 0.0281582 -0.030912 0.999522 21.3618 41.5664)" fill="#48BFE3"/>
<path d="M15 47.4099L121.971 23L175 154H30.5429L15 47.4099Z" fill="#6930C3"/>
<path d="M7.52896 132.274L47.8915 26.2796L157.166 41.1736L149.299 165.585L7.52896 132.274Z" stroke="#5E60CE"/>
<rect width="182.137" height="85.3882" transform="matrix(0.994571 0.104062 -0.114122 0.993467 44.5962 46.9434)" fill="white"/>
<path d="M86.5 76.9432V70.0909H116.006V76.9432H105.42V105H97.1023V76.9432H86.5ZM120.126 105V70.0909H128.564V98.1477H143.087V105H120.126ZM147.335 105V100.193L164.295 76.9432H147.352V70.0909H174.966V74.8977L158.006 98.1477H174.949V105H147.335Z" fill="#6930C3"/>
<path d="M40.184 130.48C39.8 130.48 39.6293 130.139 39.672 129.456C39.8853 128.453 40.28 127.216 40.856 125.744C41.432 124.251 42.2107 122.523 43.192 120.56L40.952 107.792C41.2507 107.045 41.5173 106.672 41.752 106.672C41.88 106.672 41.976 106.811 42.04 107.088C42.0827 107.899 42.168 108.848 42.296 109.936C42.4453 111.024 42.6267 112.251 42.84 113.616C43.3733 117.029 43.864 118.736 44.312 118.736C44.3547 118.736 44.408 118.704 44.472 118.64C44.7067 118.235 45.0267 117.712 45.432 117.072C45.8373 116.411 46.2747 115.611 46.744 114.672L49.4 109.488C49.8907 108.549 50.424 107.685 51 106.896C51.576 106.107 52.1627 105.371 52.76 104.688C52.8667 104.581 52.984 104.528 53.112 104.528C53.304 104.528 53.496 104.635 53.688 104.848C53.9013 105.061 54.008 105.296 54.008 105.552C54.008 105.68 53.9547 105.819 53.848 105.968C52.7387 107.333 51.64 108.827 50.552 110.448C49.4853 112.069 48.4507 113.808 47.448 115.664C47.0427 116.389 46.6587 117.083 46.296 117.744C45.9333 118.384 45.5707 119.013 45.208 119.632C45.1013 119.781 44.9733 119.963 44.824 120.176C44.696 120.368 44.5573 120.592 44.408 120.848V120.912C44.4933 121.189 44.4507 121.445 44.28 121.68C44.1093 121.893 43.928 121.989 43.736 121.968C42.2427 124.784 41.2293 127.365 40.696 129.712C40.632 130.224 40.4613 130.48 40.184 130.48ZM50.5445 126.48C49.8618 126.48 49.2858 126.213 48.8165 125.68C48.3898 125.189 48.1765 124.635 48.1765 124.016C48.1765 122.864 48.6992 121.637 49.7445 120.336C50.1712 119.781 50.6298 119.291 51.1205 118.864C51.6112 118.437 52.1232 118.053 52.6565 117.712C52.7632 117.648 52.9125 117.616 53.1045 117.616C53.7232 117.616 54.0325 117.765 54.0325 118.064C54.0325 118.149 53.9685 118.245 53.8405 118.352V118.384C54.1605 118.832 54.4805 119.301 54.8005 119.792C55.1205 120.283 55.2805 120.859 55.2805 121.52C55.2805 122.075 55.1312 122.64 54.8325 123.216C54.5552 123.792 54.1712 124.336 53.6805 124.848C53.2112 125.339 52.6992 125.733 52.1445 126.032C51.5898 126.331 51.0565 126.48 50.5445 126.48ZM50.5765 125.488C51.1098 125.467 51.6752 125.253 52.2725 124.848C52.8698 124.421 53.3818 123.909 53.8085 123.312C54.2565 122.715 54.4912 122.149 54.5125 121.616C54.5552 120.784 54.1285 119.845 53.2325 118.8C52.3152 119.461 51.5045 120.24 50.8005 121.136C49.9685 122.224 49.5525 123.205 49.5525 124.08C49.5525 125.019 49.8938 125.488 50.5765 125.488ZM63.721 126C63.2517 126.021 62.889 125.744 62.633 125.168C62.5903 125.061 62.537 124.88 62.473 124.624C62.409 124.368 62.3237 124.037 62.217 123.632C62.1317 123.099 61.993 122.885 61.801 122.992C61.4597 123.525 60.969 124.112 60.329 124.752C59.5183 125.563 58.9103 125.968 58.505 125.968C58.057 125.968 57.673 125.627 57.353 124.944C57.0757 124.411 56.937 123.899 56.937 123.408C56.937 121.765 57.1503 120.325 57.577 119.088C57.6837 118.832 57.8437 118.704 58.057 118.704C58.249 118.704 58.4303 118.8 58.601 118.992C58.7717 119.184 58.857 119.397 58.857 119.632C58.857 119.76 58.7717 120.016 58.601 120.4C58.1957 121.189 57.993 122.075 57.993 123.056C57.993 124.123 58.1957 124.656 58.601 124.656C58.793 124.656 59.2623 124.347 60.009 123.728C61.3317 122.597 62.281 121.125 62.857 119.312C62.9637 119.056 63.1343 118.928 63.369 118.928C63.753 118.928 63.945 119.088 63.945 119.408C63.945 119.621 63.913 119.856 63.849 120.112C63.8063 120.368 63.7317 120.656 63.625 120.976C63.5397 121.296 63.4757 121.584 63.433 121.84C63.3903 122.096 63.369 122.331 63.369 122.544C63.369 122.693 63.3797 122.875 63.401 123.088C63.4223 123.28 63.4543 123.493 63.497 123.728C63.6037 124.368 63.721 124.741 63.849 124.848C63.849 124.848 63.9557 124.795 64.169 124.688C64.4037 124.56 64.6597 124.432 64.937 124.304C65.2357 124.155 65.481 124.027 65.673 123.92C65.8863 123.792 65.993 123.728 65.993 123.728C66.2063 123.728 66.313 123.813 66.313 123.984C66.313 124.155 66.1317 124.4 65.769 124.72C65.4277 125.04 65.0543 125.328 64.649 125.584C64.2437 125.84 63.9343 125.979 63.721 126ZM67.8457 125.776C67.6324 125.776 67.4937 125.531 67.4297 125.04C67.3657 124.528 67.3337 124.005 67.3337 123.472C67.3337 123.131 67.3337 122.821 67.3337 122.544C67.3551 122.245 67.3657 122.021 67.3657 121.872C67.3657 121.659 67.3764 121.392 67.3977 121.072C67.4191 120.731 67.4511 120.347 67.4937 119.92C67.5577 119.045 67.5897 118.384 67.5897 117.936C67.5897 117.723 67.5791 117.52 67.5577 117.328C67.5364 117.115 67.5257 116.923 67.5257 116.752V116.624C67.5257 116.368 67.6644 116.24 67.9417 116.24C68.1551 116.24 68.2724 116.368 68.2937 116.624C68.3364 116.859 68.3684 117.339 68.3897 118.064C68.4111 118.789 68.4324 119.749 68.4537 120.944C68.4537 121.264 68.5177 121.424 68.6457 121.424C68.7951 121.424 69.0191 121.179 69.3177 120.688C69.9364 119.664 70.6084 118.8 71.3337 118.096C71.8671 117.605 72.3577 117.36 72.8057 117.36C73.3391 117.36 73.7977 117.595 74.1817 118.064C74.3097 118.213 74.3737 118.373 74.3737 118.544C74.3737 118.821 74.2564 118.96 74.0217 118.96C73.9364 118.96 73.8404 118.928 73.7337 118.864L73.7017 118.896C73.2964 118.597 73.0297 118.448 72.9017 118.448C72.3897 118.448 71.9097 118.725 71.4617 119.28C69.9044 121.2 68.9444 123.141 68.5817 125.104C68.4964 125.552 68.2511 125.776 67.8457 125.776ZM83.0127 126.288C82.2021 126.288 81.5514 125.904 81.0607 125.136C80.6554 124.517 80.4527 123.845 80.4527 123.12C80.4527 122.331 80.5594 121.595 80.7727 120.912C81.0074 120.208 81.3274 119.557 81.7327 118.96C82.6287 117.68 83.7487 117.04 85.0927 117.04C85.5621 117.04 85.9354 117.221 86.2127 117.584C86.5114 117.925 86.6287 118.288 86.5647 118.672C86.4581 119.291 86.2341 119.6 85.8927 119.6C85.7434 119.6 85.6687 119.525 85.6687 119.376C85.6687 119.291 85.7007 119.205 85.7647 119.12H85.7327C85.8181 119.013 85.8607 118.875 85.8607 118.704C85.8607 118.469 85.7541 118.267 85.5407 118.096C85.3487 117.904 85.1354 117.808 84.9007 117.808C83.9621 117.808 83.1514 118.416 82.4687 119.632C81.8714 120.677 81.5727 121.776 81.5727 122.928C81.5727 123.504 81.7221 124.005 82.0207 124.432C82.3407 124.923 82.7781 125.168 83.3327 125.168C84.2714 125.168 85.1567 124.837 85.9887 124.176C86.0741 124.091 86.1807 124.048 86.3087 124.048C86.5221 124.048 86.6287 124.176 86.6287 124.432C86.6287 124.603 86.5647 124.752 86.4367 124.88C85.6261 125.819 84.4847 126.288 83.0127 126.288ZM88.5557 126.256C88.0224 126.256 87.7237 126.011 87.6597 125.52C87.6171 125.221 87.5851 124.901 87.5637 124.56C87.5424 124.197 87.5317 123.813 87.5317 123.408C87.5317 121.893 87.6384 120.24 87.8517 118.448C88.0864 116.635 88.4171 114.683 88.8437 112.592C89.1211 111.333 89.3344 110.32 89.4837 109.552C89.6544 108.784 89.7717 108.283 89.8357 108.048C90.2624 106.469 90.7744 105.392 91.3717 104.816C91.6277 104.56 91.9264 104.432 92.2677 104.432C92.7797 104.432 93.2384 104.709 93.6437 105.264C94.0491 105.819 94.2517 106.533 94.2517 107.408C94.2517 107.984 94.1557 108.581 93.9637 109.2C93.8144 109.648 93.5477 110.203 93.1637 110.864C92.8011 111.504 92.3104 112.261 91.6917 113.136C90.4331 114.885 89.7397 115.995 89.6117 116.464L89.1637 118.352C89.0784 118.736 89.0144 119.109 88.9717 119.472C88.9504 119.835 88.9397 120.187 88.9397 120.528C88.9397 120.677 88.9397 120.827 88.9397 120.976C88.9397 121.104 88.9504 121.243 88.9717 121.392C89.0357 121.968 89.2064 122.256 89.4837 122.256C89.6544 122.256 89.8251 122.181 89.9957 122.032L91.6597 120.656C92.5344 119.952 93.0997 119.6 93.3557 119.6C93.8037 119.6 94.0277 120.037 94.0277 120.912C94.0277 122.96 94.3904 124.027 95.1157 124.112C95.2011 124.133 95.2864 124.144 95.3717 124.144C95.4571 124.144 95.5424 124.144 95.6277 124.144C96.7371 124.144 97.5584 123.792 98.0917 123.088C98.2197 122.939 98.3371 122.864 98.4437 122.864C98.5717 122.864 98.6357 122.971 98.6357 123.184C98.6357 123.333 98.5717 123.493 98.4437 123.664C98.1877 123.963 97.6864 124.347 96.9397 124.816C96.0864 125.328 95.3931 125.584 94.8597 125.584C94.6677 125.584 94.5077 125.552 94.3797 125.488H94.3157C93.8891 125.232 93.5477 124.549 93.2917 123.44C93.0784 122.459 92.7691 122 92.3637 122.064C91.5317 122.405 90.8917 122.917 90.4437 123.6C90.2304 123.899 89.9104 124.56 89.4837 125.584C89.2917 126.032 88.9824 126.256 88.5557 126.256ZM90.5397 109.104L90.0917 113.712C90.5611 113.349 90.9664 112.955 91.3077 112.528C91.6704 112.08 91.9904 111.621 92.2677 111.152C92.4171 110.875 92.5771 110.523 92.7477 110.096C92.9397 109.669 93.1424 109.157 93.3557 108.56C93.4837 108.24 93.5477 107.899 93.5477 107.536C93.5477 106.939 93.3877 106.427 93.0677 106C92.7477 105.573 92.4171 105.413 92.0757 105.52C91.4144 105.733 90.9024 106.928 90.5397 109.104ZM106.514 126.384C106.407 126.384 106.311 126.341 106.226 126.256C105.65 125.659 105.351 124.784 105.33 123.632C105.33 123.547 105.341 123.451 105.362 123.344C105.383 123.216 105.394 123.077 105.394 122.928L105.426 122.256V122.16C105.426 121.776 105.287 121.637 105.01 121.744C104.583 122.043 104.007 122.48 103.282 123.056C102.578 123.611 101.725 124.293 100.722 125.104C100.295 125.509 99.7513 125.712 99.09 125.712C98.706 125.712 98.3753 125.509 98.098 125.104C97.842 124.677 97.746 124.272 97.81 123.888C97.874 123.333 98.098 122.736 98.482 122.096C98.866 121.435 99.3353 120.784 99.89 120.144C100.466 119.483 101.074 118.907 101.714 118.416C102.375 117.904 103.005 117.541 103.602 117.328C103.837 117.243 104.061 117.179 104.274 117.136C104.487 117.093 104.701 117.072 104.914 117.072C105.831 117.072 106.29 117.392 106.29 118.032C106.29 118.245 106.205 118.352 106.034 118.352C105.97 118.352 105.906 118.352 105.842 118.352C105.778 118.331 105.714 118.299 105.65 118.256C105.266 117.936 104.914 117.776 104.594 117.776C104.274 117.776 103.805 117.968 103.186 118.352C102.695 118.651 102.215 119.024 101.746 119.472C101.277 119.92 100.829 120.421 100.402 120.976C99.9967 121.509 99.6767 121.989 99.442 122.416C99.2073 122.821 99.0687 123.184 99.026 123.504C99.0047 123.589 98.994 123.696 98.994 123.824C98.994 124.165 99.1327 124.336 99.41 124.336C99.7513 124.336 100.391 124.027 101.33 123.408C103.57 121.915 105.127 120.592 106.002 119.44C106.215 119.163 106.407 118.789 106.578 118.32C106.685 118.021 106.909 117.872 107.25 117.872C107.634 117.872 107.826 118.085 107.826 118.512C107.826 118.853 107.666 119.28 107.346 119.792C106.834 121.349 106.578 122.427 106.578 123.024C106.621 123.941 106.845 124.677 107.25 125.232C107.314 125.296 107.346 125.381 107.346 125.488C107.346 125.68 107.25 125.872 107.058 126.064C106.866 126.277 106.685 126.384 106.514 126.384ZM110.743 125.776C110.423 125.776 110.306 125.488 110.391 124.912C110.455 124.165 110.562 123.248 110.711 122.16C110.882 121.051 111.085 119.771 111.319 118.32C111.426 118 111.597 117.84 111.831 117.84C112.13 117.84 112.279 117.979 112.279 118.256C112.279 118.277 112.279 118.32 112.279 118.384C112.279 118.427 112.269 118.48 112.247 118.544C112.205 118.736 112.162 118.949 112.119 119.184C112.098 119.397 112.087 119.632 112.087 119.888C112.087 120.187 112.098 120.507 112.119 120.848C112.162 121.189 112.226 121.552 112.311 121.936C112.439 121.936 112.962 121.477 113.879 120.56C114.797 119.685 115.543 119.163 116.119 118.992V118.96C116.183 118.939 116.247 118.928 116.311 118.928C116.375 118.928 116.429 118.928 116.471 118.928C116.877 118.928 117.143 119.12 117.271 119.504L117.719 122.48C117.911 123.781 118.263 124.432 118.775 124.432C118.989 124.432 119.202 124.357 119.415 124.208C119.714 123.995 120.002 123.771 120.279 123.536C120.557 123.28 120.802 123.013 121.015 122.736C121.143 122.693 121.229 122.672 121.271 122.672C121.421 122.672 121.495 122.768 121.495 122.96C121.495 123.088 121.41 123.259 121.239 123.472C120.962 123.813 120.674 124.165 120.375 124.528C120.077 124.869 119.778 125.136 119.479 125.328C119.074 125.563 118.733 125.68 118.455 125.68C117.879 125.68 117.442 125.211 117.143 124.272L116.599 121.68C116.407 120.805 116.162 120.411 115.863 120.496C115.842 120.496 115.81 120.496 115.767 120.496C115.746 120.475 115.714 120.464 115.671 120.464C115.586 120.464 115.479 120.485 115.351 120.528C115.245 120.571 115.138 120.645 115.031 120.752L114.263 121.552C113.602 122.235 113.047 122.896 112.599 123.536C112.151 124.176 111.789 124.773 111.511 125.328C111.341 125.627 111.085 125.776 110.743 125.776ZM123.824 126.288C123.013 126.288 122.363 125.904 121.872 125.136C121.467 124.517 121.264 123.845 121.264 123.12C121.264 122.331 121.371 121.595 121.584 120.912C121.819 120.208 122.139 119.557 122.544 118.96C123.44 117.68 124.56 117.04 125.904 117.04C126.373 117.04 126.747 117.221 127.024 117.584C127.323 117.925 127.44 118.288 127.376 118.672C127.269 119.291 127.045 119.6 126.704 119.6C126.555 119.6 126.48 119.525 126.48 119.376C126.48 119.291 126.512 119.205 126.576 119.12H126.544C126.629 119.013 126.672 118.875 126.672 118.704C126.672 118.469 126.565 118.267 126.352 118.096C126.16 117.904 125.947 117.808 125.712 117.808C124.773 117.808 123.963 118.416 123.28 119.632C122.683 120.677 122.384 121.776 122.384 122.928C122.384 123.504 122.533 124.005 122.832 124.432C123.152 124.923 123.589 125.168 124.144 125.168C125.083 125.168 125.968 124.837 126.8 124.176C126.885 124.091 126.992 124.048 127.12 124.048C127.333 124.048 127.44 124.176 127.44 124.432C127.44 124.603 127.376 124.752 127.248 124.88C126.437 125.819 125.296 126.288 123.824 126.288ZM131.575 126.672C130.636 126.672 129.868 126.384 129.271 125.808C128.695 125.232 128.407 124.453 128.407 123.472C128.407 123.259 128.418 123.045 128.439 122.832C128.482 122.619 128.524 122.405 128.567 122.192C128.802 121.275 129.452 120.293 130.519 119.248C131.714 118.117 132.748 117.552 133.623 117.552C134.348 117.552 134.69 117.957 134.647 118.768C134.626 119.813 134.05 120.837 132.919 121.84C132.428 122.245 131.916 122.619 131.383 122.96C130.871 123.301 130.327 123.472 129.751 123.472H129.719C129.783 124.859 130.498 125.552 131.863 125.552C132.311 125.552 132.812 125.445 133.367 125.232C133.41 125.211 133.474 125.2 133.559 125.2C133.836 125.2 133.975 125.339 133.975 125.616C133.975 125.808 133.879 125.957 133.687 126.064C133.09 126.469 132.386 126.672 131.575 126.672ZM130.583 121.968C131.244 121.819 131.81 121.541 132.279 121.136C133.111 120.432 133.527 119.76 133.527 119.12V119.056C133.527 118.907 133.474 118.789 133.367 118.704C133.26 118.619 133.186 118.597 133.143 118.64C132.482 118.64 131.778 119.12 131.031 120.08C130.924 120.229 130.796 120.432 130.647 120.688C130.498 120.923 130.338 121.211 130.167 121.552C130.146 121.595 130.135 121.637 130.135 121.68C130.135 121.872 130.284 121.968 130.583 121.968ZM144.192 127.92C143.658 127.92 143.392 127.6 143.392 126.96C143.392 123.781 143.616 120.4 144.064 116.816C143.85 116.773 143.626 116.741 143.392 116.72C143.178 116.677 142.965 116.635 142.752 116.592C142.154 116.507 141.856 116.336 141.856 116.08C141.856 115.824 141.984 115.664 142.24 115.6H142.208C142.016 115.6 142.048 115.589 142.304 115.568C142.56 115.525 142.89 115.483 143.296 115.44C143.701 115.397 144.021 115.376 144.256 115.376C144.384 114.629 144.64 113.744 145.024 112.72C145.237 112.101 145.408 111.568 145.536 111.12C145.685 110.651 145.802 110.277 145.888 110C145.994 109.573 146.272 109.36 146.72 109.36C146.912 109.36 146.986 109.456 146.944 109.648C146.773 110.245 146.56 111.024 146.304 111.984C146.048 112.923 145.77 114.043 145.472 115.344C145.664 115.344 145.898 115.344 146.176 115.344C146.474 115.344 146.816 115.355 147.2 115.376C147.584 115.397 147.914 115.419 148.192 115.44C148.49 115.44 148.725 115.44 148.896 115.44C149.088 115.44 149.184 115.515 149.184 115.664C149.184 115.792 149.098 115.931 148.928 116.08C148.778 116.229 148.608 116.304 148.416 116.304C148.16 116.304 147.776 116.347 147.264 116.432C146.752 116.496 146.101 116.603 145.312 116.752C144.992 119.376 144.832 122.939 144.832 127.44C144.832 127.76 144.618 127.92 144.192 127.92ZM150.603 126.48C149.921 126.48 149.345 126.213 148.875 125.68C148.449 125.189 148.235 124.635 148.235 124.016C148.235 122.864 148.758 121.637 149.803 120.336C150.23 119.781 150.689 119.291 151.179 118.864C151.67 118.437 152.182 118.053 152.715 117.712C152.822 117.648 152.971 117.616 153.163 117.616C153.782 117.616 154.091 117.765 154.091 118.064C154.091 118.149 154.027 118.245 153.899 118.352V118.384C154.219 118.832 154.539 119.301 154.859 119.792C155.179 120.283 155.339 120.859 155.339 121.52C155.339 122.075 155.19 122.64 154.891 123.216C154.614 123.792 154.23 124.336 153.739 124.848C153.27 125.339 152.758 125.733 152.203 126.032C151.649 126.331 151.115 126.48 150.603 126.48ZM150.635 125.488C151.169 125.467 151.734 125.253 152.331 124.848C152.929 124.421 153.441 123.909 153.867 123.312C154.315 122.715 154.55 122.149 154.571 121.616C154.614 120.784 154.187 119.845 153.291 118.8C152.374 119.461 151.563 120.24 150.859 121.136C150.027 122.224 149.611 123.205 149.611 124.08C149.611 125.019 149.953 125.488 150.635 125.488ZM163.521 126.704C162.988 126.704 162.529 126.608 162.145 126.416C161.783 126.224 161.601 125.957 161.601 125.616C161.601 125.381 161.708 125.264 161.921 125.264C161.9 125.264 162.071 125.339 162.433 125.488C162.796 125.616 163.18 125.68 163.585 125.68C164.823 125.68 165.601 125.104 165.921 123.952C166.049 123.461 165.601 122.651 164.577 121.52C163.852 120.731 163.489 119.835 163.489 118.832C163.489 118.491 163.639 118.096 163.937 117.648C164.236 117.179 164.599 116.773 165.025 116.432C165.452 116.069 165.857 115.888 166.241 115.888C166.924 115.888 167.308 116.059 167.393 116.4C167.415 116.464 167.425 116.528 167.425 116.592C167.447 116.656 167.457 116.72 167.457 116.784C167.457 117.125 167.329 117.296 167.073 117.296C166.924 117.296 166.807 117.243 166.721 117.136C166.615 117.029 166.465 116.976 166.273 116.976C166.231 116.976 166.177 116.976 166.113 116.976C166.049 116.976 165.996 116.997 165.953 117.04C165.185 117.424 164.748 117.957 164.641 118.64C164.556 119.237 165.015 120.069 166.017 121.136C166.913 122.096 167.361 122.992 167.361 123.824C167.361 124.741 166.892 125.477 165.953 126.032C165.228 126.48 164.417 126.704 163.521 126.704ZM176.045 126C175.575 126.021 175.213 125.744 174.957 125.168C174.914 125.061 174.861 124.88 174.797 124.624C174.733 124.368 174.647 124.037 174.541 123.632C174.455 123.099 174.317 122.885 174.125 122.992C173.783 123.525 173.293 124.112 172.653 124.752C171.842 125.563 171.234 125.968 170.829 125.968C170.381 125.968 169.997 125.627 169.677 124.944C169.399 124.411 169.261 123.899 169.261 123.408C169.261 121.765 169.474 120.325 169.901 119.088C170.007 118.832 170.167 118.704 170.381 118.704C170.573 118.704 170.754 118.8 170.925 118.992C171.095 119.184 171.181 119.397 171.181 119.632C171.181 119.76 171.095 120.016 170.925 120.4C170.519 121.189 170.317 122.075 170.317 123.056C170.317 124.123 170.519 124.656 170.925 124.656C171.117 124.656 171.586 124.347 172.333 123.728C173.655 122.597 174.605 121.125 175.181 119.312C175.287 119.056 175.458 118.928 175.693 118.928C176.077 118.928 176.269 119.088 176.269 119.408C176.269 119.621 176.237 119.856 176.173 120.112C176.13 120.368 176.055 120.656 175.949 120.976C175.863 121.296 175.799 121.584 175.757 121.84C175.714 122.096 175.693 122.331 175.693 122.544C175.693 122.693 175.703 122.875 175.725 123.088C175.746 123.28 175.778 123.493 175.821 123.728C175.927 124.368 176.045 124.741 176.173 124.848C176.173 124.848 176.279 124.795 176.493 124.688C176.727 124.56 176.983 124.432 177.261 124.304C177.559 124.155 177.805 124.027 177.997 123.92C178.21 123.792 178.317 123.728 178.317 123.728C178.53 123.728 178.637 123.813 178.637 123.984C178.637 124.155 178.455 124.4 178.093 124.72C177.751 125.04 177.378 125.328 176.973 125.584C176.567 125.84 176.258 125.979 176.045 126ZM181.322 126.288C180.511 126.288 179.86 125.904 179.37 125.136C178.964 124.517 178.762 123.845 178.762 123.12C178.762 122.331 178.868 121.595 179.082 120.912C179.316 120.208 179.636 119.557 180.042 118.96C180.938 117.68 182.058 117.04 183.402 117.04C183.871 117.04 184.244 117.221 184.522 117.584C184.82 117.925 184.938 118.288 184.874 118.672C184.767 119.291 184.543 119.6 184.202 119.6C184.052 119.6 183.978 119.525 183.978 119.376C183.978 119.291 184.01 119.205 184.074 119.12H184.042C184.127 119.013 184.17 118.875 184.17 118.704C184.17 118.469 184.063 118.267 183.85 118.096C183.658 117.904 183.444 117.808 183.21 117.808C182.271 117.808 181.46 118.416 180.778 119.632C180.18 120.677 179.882 121.776 179.882 122.928C179.882 123.504 180.031 124.005 180.33 124.432C180.65 124.923 181.087 125.168 181.642 125.168C182.58 125.168 183.466 124.837 184.298 124.176C184.383 124.091 184.49 124.048 184.618 124.048C184.831 124.048 184.938 124.176 184.938 124.432C184.938 124.603 184.874 124.752 184.746 124.88C183.935 125.819 182.794 126.288 181.322 126.288ZM188.016 126.288C187.206 126.288 186.555 125.904 186.064 125.136C185.659 124.517 185.456 123.845 185.456 123.12C185.456 122.331 185.563 121.595 185.776 120.912C186.011 120.208 186.331 119.557 186.736 118.96C187.632 117.68 188.752 117.04 190.096 117.04C190.566 117.04 190.939 117.221 191.216 117.584C191.515 117.925 191.632 118.288 191.568 118.672C191.462 119.291 191.238 119.6 190.896 119.6C190.747 119.6 190.672 119.525 190.672 119.376C190.672 119.291 190.704 119.205 190.768 119.12H190.736C190.822 119.013 190.864 118.875 190.864 118.704C190.864 118.469 190.758 118.267 190.544 118.096C190.352 117.904 190.139 117.808 189.904 117.808C188.966 117.808 188.155 118.416 187.472 119.632C186.875 120.677 186.576 121.776 186.576 122.928C186.576 123.504 186.726 124.005 187.024 124.432C187.344 124.923 187.782 125.168 188.336 125.168C189.275 125.168 190.16 124.837 190.992 124.176C191.078 124.091 191.184 124.048 191.312 124.048C191.526 124.048 191.632 124.176 191.632 124.432C191.632 124.603 191.568 124.752 191.44 124.88C190.63 125.819 189.488 126.288 188.016 126.288ZM195.768 126.672C194.829 126.672 194.061 126.384 193.464 125.808C192.888 125.232 192.6 124.453 192.6 123.472C192.6 123.259 192.61 123.045 192.632 122.832C192.674 122.619 192.717 122.405 192.76 122.192C192.994 121.275 193.645 120.293 194.712 119.248C195.906 118.117 196.941 117.552 197.816 117.552C198.541 117.552 198.882 117.957 198.84 118.768C198.818 119.813 198.242 120.837 197.112 121.84C196.621 122.245 196.109 122.619 195.576 122.96C195.064 123.301 194.52 123.472 193.944 123.472H193.912C193.976 124.859 194.69 125.552 196.056 125.552C196.504 125.552 197.005 125.445 197.56 125.232C197.602 125.211 197.666 125.2 197.752 125.2C198.029 125.2 198.168 125.339 198.168 125.616C198.168 125.808 198.072 125.957 197.88 126.064C197.282 126.469 196.578 126.672 195.768 126.672ZM194.776 121.968C195.437 121.819 196.002 121.541 196.472 121.136C197.304 120.432 197.72 119.76 197.72 119.12V119.056C197.72 118.907 197.666 118.789 197.56 118.704C197.453 118.619 197.378 118.597 197.336 118.64C196.674 118.64 195.97 119.12 195.224 120.08C195.117 120.229 194.989 120.432 194.84 120.688C194.69 120.923 194.53 121.211 194.36 121.552C194.338 121.595 194.328 121.637 194.328 121.68C194.328 121.872 194.477 121.968 194.776 121.968ZM203.619 126.672C202.68 126.672 201.912 126.384 201.315 125.808C200.739 125.232 200.451 124.453 200.451 123.472C200.451 123.259 200.461 123.045 200.483 122.832C200.525 122.619 200.568 122.405 200.611 122.192C200.845 121.275 201.496 120.293 202.563 119.248C203.757 118.117 204.792 117.552 205.667 117.552C206.392 117.552 206.733 117.957 206.691 118.768C206.669 119.813 206.093 120.837 204.963 121.84C204.472 122.245 203.96 122.619 203.427 122.96C202.915 123.301 202.371 123.472 201.795 123.472H201.763C201.827 124.859 202.541 125.552 203.907 125.552C204.355 125.552 204.856 125.445 205.411 125.232C205.453 125.211 205.517 125.2 205.603 125.2C205.88 125.2 206.019 125.339 206.019 125.616C206.019 125.808 205.923 125.957 205.731 126.064C205.133 126.469 204.429 126.672 203.619 126.672ZM202.627 121.968C203.288 121.819 203.853 121.541 204.323 121.136C205.155 120.432 205.571 119.76 205.571 119.12V119.056C205.571 118.907 205.517 118.789 205.411 118.704C205.304 118.619 205.229 118.597 205.187 118.64C204.525 118.64 203.821 119.12 203.075 120.08C202.968 120.229 202.84 120.432 202.691 120.688C202.541 120.923 202.381 121.211 202.211 121.552C202.189 121.595 202.179 121.637 202.179 121.68C202.179 121.872 202.328 121.968 202.627 121.968ZM214.894 128.88C214.297 128.88 213.955 128.165 213.87 126.736L213.966 124.944C214.03 124.048 213.987 123.504 213.838 123.312C211.513 125.381 209.902 126.416 209.006 126.416C208.089 126.416 207.63 125.797 207.63 124.56C207.63 123.664 207.918 122.661 208.494 121.552C209.049 120.485 209.625 119.717 210.222 119.248C211.054 118.608 211.758 118.288 212.334 118.288C212.782 118.288 213.23 118.395 213.678 118.608C213.721 118.629 213.763 118.661 213.806 118.704C213.87 118.747 213.934 118.789 213.998 118.832C214.147 118.939 214.233 118.992 214.254 118.992C214.318 118.992 214.35 118.928 214.35 118.8C214.435 117.733 214.563 116.549 214.734 115.248C214.926 113.925 215.161 112.485 215.438 110.928C215.545 110.416 215.694 109.829 215.886 109.168C216.099 108.507 216.355 107.781 216.654 106.992C216.995 106.139 217.475 105.712 218.094 105.712C219.011 105.712 219.523 106.501 219.63 108.08C219.651 108.187 219.662 108.304 219.662 108.432C219.662 108.539 219.662 108.645 219.662 108.752C219.662 110.416 219.267 112.165 218.478 114L215.406 120.144C215.385 120.869 215.417 121.947 215.502 123.376C215.523 123.589 215.555 123.899 215.598 124.304C215.662 124.688 215.726 125.083 215.79 125.488C215.854 125.893 215.907 126.235 215.95 126.512C216.014 126.811 216.046 126.971 216.046 126.992C216.046 127.504 215.929 127.941 215.694 128.304C215.459 128.688 215.193 128.88 214.894 128.88ZM215.694 117.648L217.838 113.136C218.265 112.261 218.542 111.429 218.67 110.64C218.819 109.829 218.873 109.061 218.83 108.336C218.766 107.163 218.574 106.576 218.254 106.576C217.955 106.576 217.625 107.056 217.262 108.016C217.07 108.507 216.91 109.029 216.782 109.584C216.654 110.117 216.547 110.683 216.462 111.28L216.43 111.312C216.345 111.995 216.238 112.869 216.11 113.936C215.982 114.981 215.843 116.219 215.694 117.648ZM208.878 125.104C209.603 125.168 210.382 124.944 211.214 124.432C211.705 124.133 212.153 123.749 212.558 123.28C212.985 122.789 213.379 122.235 213.742 121.616H213.774C213.838 121.317 213.87 121.029 213.87 120.752C213.87 119.579 213.443 118.992 212.59 118.992C211.971 118.992 211.289 119.376 210.542 120.144C210.009 120.72 209.561 121.36 209.198 122.064C208.686 123.045 208.43 123.835 208.43 124.432C208.43 124.837 208.579 125.061 208.878 125.104Z" fill="#5E60CE"/>
</svg>
